<?xml version="1.0" encoding="UTF-8" standalone="no"?>
<!-- Created with Inkscape (http://www.inkscape.org/) -->

<svg
   width="297mm"
   height="210mm"
   viewBox="0 0 297 210"
   version="1.1"
   id="svg1"
   inkscape:version="1.4 (e7c3feb100, 2024-10-09)"
   sodipodi:docname="logo.svg"
   xmlns:inkscape="http://www.inkscape.org/namespaces/inkscape"
   xmlns:sodipodi="http://sodipodi.sourceforge.net/DTD/sodipodi-0.dtd"
   xmlns:xlink="http://www.w3.org/1999/xlink"
   xmlns="http://www.w3.org/2000/svg"
   xmlns:svg="http://www.w3.org/2000/svg">
  <sodipodi:namedview
     id="namedview1"
     pagecolor="#ffffff"
     bordercolor="#212121"
     borderopacity="1"
     inkscape:showpageshadow="2"
     inkscape:pageopacity="0.0"
     inkscape:pagecheckerboard="0"
     inkscape:deskcolor="#414141"
     inkscape:document-units="mm"
     inkscape:zoom="0.35355339"
     inkscape:cx="1665.9436"
     inkscape:cy="733.97684"
     inkscape:window-width="2327"
     inkscape:window-height="1250"
     inkscape:window-x="0"
     inkscape:window-y="0"
     inkscape:window-maximized="1"
     inkscape:current-layer="g30"
     showguides="true">
    <inkscape:page
       x="0"
       y="0"
       width="297"
       height="210"
       id="page18"
       margin="0"
       bleed="0"
       inkscape:export-filename="logo_subtitle.png"
       inkscape:export-xdpi="256.5657"
       inkscape:export-ydpi="256.5657" />
    <inkscape:page
       x="307"
       y="0"
       width="297"
       height="210"
       id="page19"
       margin="0"
       bleed="0" />
    <inkscape:page
       x="614"
       y="0"
       width="297"
       height="210"
       id="page1"
       margin="0"
       bleed="0" />
    <sodipodi:guide
       position="752.65589,89.211269"
       orientation="0,-1"
       id="guide1"
       inkscape:locked="false" />
  </sodipodi:namedview>
  <defs
     id="defs1">
    <linearGradient
       id="linearGradient14"
       inkscape:collect="always">
      <stop
         style="stop-color:#060e36;stop-opacity:1;"
         offset="0"
         id="stop14" />
      <stop
         style="stop-color:#112fb7;stop-opacity:1;"
         offset="1"
         id="stop15" />
    </linearGradient>
    <linearGradient
       id="linearGradient10"
       inkscape:collect="always">
      <stop
         style="stop-color:#1934e1;stop-opacity:1;"
         offset="0"
         id="stop10" />
      <stop
         style="stop-color:#475cd3;stop-opacity:1;"
         offset="1"
         id="stop13" />
    </linearGradient>
    <rect
       x="2430"
       y="90"
       width="931.90685"
       height="277.58827"
       id="rect26" />
    <linearGradient
       id="linearGradient21"
       inkscape:collect="always">
      <stop
         style="stop-color:#585858;stop-opacity:1;"
         offset="0"
         id="stop21" />
      <stop
         style="stop-color:#1b1b1b;stop-opacity:1;"
         offset="1"
         id="stop22" />
    </linearGradient>
    <rect
       x="845.87648"
       y="163.16489"
       width="120.91526"
       height="75.837202"
       id="rect21" />
    <linearGradient
       id="linearGradient11"
       inkscape:collect="always">
      <stop
         style="stop-color:#ffffff;stop-opacity:1;"
         offset="0"
         id="stop11" />
      <stop
         style="stop-color:#ffffff;stop-opacity:1;"
         offset="1"
         id="stop12" />
    </linearGradient>
    <linearGradient
       id="linearGradient6"
       inkscape:collect="always">
      <stop
         style="stop-color:#4d4d4d;stop-opacity:1;"
         offset="0"
         id="stop5" />
      <stop
         style="stop-color:#a3a3a3;stop-opacity:1;"
         offset="1"
         id="stop6" />
    </linearGradient>
    <linearGradient
       id="linearGradient2"
       inkscape:collect="always">
      <stop
         style="stop-color:#666666;stop-opacity:1;"
         offset="0"
         id="stop2" />
      <stop
         style="stop-color:#464646;stop-opacity:1;"
         offset="1"
         id="stop3" />
    </linearGradient>
    <rect
       x="200.22303"
       y="274.11486"
       width="714.2877"
       height="368.66462"
       id="rect1" />
    <rect
       x="200.22303"
       y="274.11486"
       width="714.2877"
       height="368.66462"
       id="rect2" />
    <linearGradient
       inkscape:collect="always"
       xlink:href="#linearGradient6"
       id="linearGradient3"
       x1="764.61432"
       y1="262.72906"
       x2="229.2236"
       y2="548.22974"
       gradientUnits="userSpaceOnUse" />
    <rect
       x="200.22303"
       y="274.11486"
       width="714.2877"
       height="368.66462"
       id="rect3" />
    <linearGradient
       inkscape:collect="always"
       xlink:href="#linearGradient2"
       id="linearGradient4"
       gradientUnits="userSpaceOnUse"
       x1="499.95486"
       y1="403.34613"
       x2="622.14343"
       y2="394.32034" />
    <rect
       x="200.22303"
       y="274.11486"
       width="714.2877"
       height="368.66462"
       id="rect6" />
    <rect
       x="200.22303"
       y="274.11486"
       width="714.2877"
       height="368.66462"
       id="rect8" />
    <clipPath
       clipPathUnits="userSpaceOnUse"
       id="clipPath8">
      <path
         style="fill:#ffffff;fill-opacity:0.729412;stroke:#4d4d4d;stroke-width:0.282915;-inkscape-stroke:none;paint-order:stroke markers fill"
         d="m 333.29412,371.43891 452.88539,-30.17212 -3.17813,3.97268 -448.25202,29.86094 z"
         id="path9" />
    </clipPath>
    <rect
       x="200.22303"
       y="274.11486"
       width="714.2877"
       height="368.66462"
       id="rect9" />
    <clipPath
       clipPathUnits="userSpaceOnUse"
       id="clipPath10">
      <path
         style="fill:#ffffff;fill-opacity:0.729412;stroke:#4d4d4d;stroke-width:0.282915;-inkscape-stroke:none;paint-order:stroke markers fill"
         d="m 344.43127,355.95205 433.4193,-11.52077 v 3.24186 L 344.034,360.71928 Z"
         id="path11" />
    </clipPath>
    <linearGradient
       inkscape:collect="always"
       xlink:href="#linearGradient11"
       id="linearGradient12"
       x1="313.84164"
       y1="241.14162"
       x2="873.98944"
       y2="427.06302"
       gradientUnits="userSpaceOnUse" />
    <rect
       x="200.22303"
       y="274.11486"
       width="714.2877"
       height="368.66462"
       id="rect12" />
    <clipPath
       clipPathUnits="userSpaceOnUse"
       id="clipPath16">
      <path
         style="fill:#1a1a1a;fill-opacity:0.755829;stroke:#4d4d4d;stroke-width:0.282915;-inkscape-stroke:none;paint-order:stroke markers fill"
         d="m 270.53944,347.67315 c 39.32955,14.43662 8.35559,43.49888 110.27779,45.26785 118.5385,2.05738 104.09303,-16.04825 104.09303,-16.04825 105.79015,-9.54596 214.07221,-18.50257 260.7616,-3.39719 67.53554,21.84971 46.0831,101.70058 46.0831,101.70058 L 299.14274,489.4978 Z"
         id="path16"
         sodipodi:nodetypes="csssccc" />
    </clipPath>
    <linearGradient
       inkscape:collect="always"
       xlink:href="#linearGradient21"
       id="linearGradient22"
       x1="-81.886215"
       y1="152.94687"
       x2="220.25671"
       y2="144.12517"
       gradientUnits="userSpaceOnUse" />
    <rect
       x="200.22303"
       y="274.11486"
       width="714.2877"
       height="368.66462"
       id="rect24" />
    <rect
       x="200.22303"
       y="274.11486"
       width="714.2877"
       height="368.66462"
       id="rect25" />
    <rect
       x="200.22303"
       y="274.11486"
       width="714.2877"
       height="368.66462"
       id="rect30" />
    <rect
       x="200.22303"
       y="274.11486"
       width="714.2877"
       height="368.66462"
       id="rect31" />
    <linearGradient
       inkscape:collect="always"
       xlink:href="#linearGradient6"
       id="linearGradient31"
       gradientUnits="userSpaceOnUse"
       x1="764.61432"
       y1="262.72906"
       x2="229.2236"
       y2="548.22974" />
    <linearGradient
       inkscape:collect="always"
       xlink:href="#linearGradient11"
       id="linearGradient32"
       gradientUnits="userSpaceOnUse"
       x1="313.84164"
       y1="241.14162"
       x2="873.98944"
       y2="427.06302" />
    <linearGradient
       inkscape:collect="always"
       xlink:href="#linearGradient2"
       id="linearGradient33"
       gradientUnits="userSpaceOnUse"
       x1="499.95486"
       y1="403.34613"
       x2="622.14343"
       y2="394.32034" />
    <rect
       x="200.22303"
       y="274.11486"
       width="714.2877"
       height="368.66462"
       id="rect14" />
    <rect
       x="200.22303"
       y="274.11486"
       width="714.2877"
       height="368.66462"
       id="rect15" />
    <rect
       x="200.22303"
       y="274.11486"
       width="714.2877"
       height="368.66462"
       id="rect22" />
    <rect
       x="200.22303"
       y="274.11486"
       width="714.2877"
       height="368.66462"
       id="rect23" />
    <linearGradient
       inkscape:collect="always"
       xlink:href="#linearGradient6"
       id="linearGradient23"
       gradientUnits="userSpaceOnUse"
       x1="764.61432"
       y1="262.72906"
       x2="229.2236"
       y2="548.22974" />
    <linearGradient
       inkscape:collect="always"
       xlink:href="#linearGradient11"
       id="linearGradient24"
       gradientUnits="userSpaceOnUse"
       x1="313.84164"
       y1="241.14162"
       x2="873.98944"
       y2="427.06302" />
    <linearGradient
       inkscape:collect="always"
       xlink:href="#linearGradient2"
       id="linearGradient25"
       gradientUnits="userSpaceOnUse"
       x1="499.95486"
       y1="403.34613"
       x2="622.14343"
       y2="394.32034" />
    <linearGradient
       inkscape:collect="always"
       xlink:href="#linearGradient21"
       id="linearGradient1"
       gradientUnits="userSpaceOnUse"
       x1="-81.886215"
       y1="152.94687"
       x2="220.25671"
       y2="144.12517" />
    <rect
       x="2430"
       y="90"
       width="931.90685"
       height="277.58827"
       id="rect4" />
    <clipPath
       clipPathUnits="userSpaceOnUse"
       id="clipPath9">
      <path
         style="opacity:0.654373;fill:#383838;stroke:#383838;stroke-width:0.653858;paint-order:stroke markers fill"
         d="m 2394.3982,193.35937 c 0,0 122.8283,-11.47273 289.9999,-35.17056 329.0001,-46.63824 642,6.6813 679.0001,48.72006 37,42.03877 -186.2338,-55.58827 -336,-13.5495 -149.7662,42.03877 -626,84.85039 -626,84.85039 z"
         id="path10"
         sodipodi:nodetypes="csszcc" />
    </clipPath>
    <linearGradient
       inkscape:collect="always"
       xlink:href="#linearGradient10"
       id="linearGradient13"
       x1="2353.281"
       y1="184.2135"
       x2="3372.2947"
       y2="70.213501"
       gradientUnits="userSpaceOnUse" />
    <linearGradient
       inkscape:collect="always"
       xlink:href="#linearGradient14"
       id="linearGradient15"
       x1="2346.3982"
       y1="81.359375"
       x2="3392.3982"
       y2="237.35938"
       gradientUnits="userSpaceOnUse" />
    <rect
       x="2430"
       y="90"
       width="931.90685"
       height="277.58827"
       id="rect17" />
    <clipPath
       clipPathUnits="userSpaceOnUse"
       id="clipPath17">
      <path
         style="opacity:1;fill:#3e4dbc;fill-opacity:1;stroke:none;stroke-width:0.653858;paint-order:stroke markers fill"
         d="m 2394.7952,198.17163 c 0,0 356.603,-57.37759 950.603,-58.09492 593.9999,-0.71734 -5,18.1121 -5,18.1121 0,0 -672,-23.6451 -938,57.08722 -266,80.73231 -7.603,-17.1044 -7.603,-17.1044 z"
         id="path18" />
    </clipPath>
  </defs>
  <g
     inkscape:label="Page 1"
     inkscape:groupmode="layer"
     id="layer1">
    <g
       id="g27"
       inkscape:label="logo"
       inkscape:export-filename="logo_subtitle.png"
       inkscape:export-xdpi="305.85281"
       inkscape:export-ydpi="305.85281">
      <text
         xml:space="preserve"
         transform="matrix(0.68288037,0,0,0.68288037,-227.20053,-154.41123)"
         id="text1"
         style="font-weight:300;font-size:133.333px;line-height:1.5;font-family:Roboto;-inkscape-font-specification:'Roboto Light';text-align:center;text-decoration-color:#000000;writing-mode:lr-tb;direction:ltr;white-space:pre;shape-inside:url(#rect1);display:inline;fill:url(#linearGradient3);fill-opacity:1;stroke-width:0.282915;-inkscape-stroke:none;paint-order:stroke markers fill"
         inkscape:label="up"><tspan
           x="374.03432"
           y="418.55931"
           id="tspan5"><tspan
             style="font-weight:normal;font-family:TESLA;-inkscape-font-specification:TESLA"
             id="tspan4">UbiR</tspan></tspan></text>
      <text
         xml:space="preserve"
         transform="matrix(0.68288037,0,0,0.68288037,-227.20053,-154.41123)"
         id="text9"
         style="font-weight:300;font-size:133.333px;line-height:1.5;font-family:Roboto;-inkscape-font-specification:'Roboto Light';text-align:center;text-decoration-color:#000000;writing-mode:lr-tb;direction:ltr;white-space:pre;shape-inside:url(#rect9);display:inline;opacity:0.654373;fill:url(#linearGradient12);fill-opacity:1;stroke-width:0.282915;-inkscape-stroke:none;paint-order:stroke markers fill"
         clip-path="url(#clipPath10)"
         inkscape:label="flare"><tspan
           x="374.03432"
           y="418.55931"
           id="tspan7"><tspan
             style="font-weight:normal;font-family:TESLA;-inkscape-font-specification:TESLA"
             id="tspan6">UbiR</tspan></tspan></text>
      <path
         style="font-size:133.333px;line-height:1.5;font-family:TESLA;-inkscape-font-specification:TESLA;text-align:center;text-anchor:middle;white-space:pre;display:inline;fill:url(#linearGradient4);stroke-width:0.282915;paint-order:stroke markers fill"
         d="m 390.70095,418.55931 c -4.68749,0 -8.63714,-1.6059 -11.84893,-4.8177 -3.2118,-3.2986 -4.8177,-7.24824 -4.8177,-11.84892 h 99.99975 c 0,4.68749 -1.6493,8.63713 -4.94791,11.84892 -3.2986,3.2118 -7.20484,4.8177 -11.71872,4.8177 z m -16.66663,-33.33325 v -49.99987 h 16.66663 v 49.99987 z m 83.33312,0 v -49.99987 h 16.66663 v 49.99987 z m 33.33325,33.33325 v -16.66662 -13.34664 h 16.91881 v 13.34664 h 41.41437 c 2.25694,0 4.21006,-0.78125 5.85936,-2.34375 1.64931,-1.6493 2.47396,-3.64582 2.47396,-5.98957 v -24.99993 h -66.6665 v -33.33325 h 16.66662 v 16.66662 h 66.6665 v 49.99988 c 0,4.68749 -1.6493,8.63713 -4.9479,11.84892 -3.29861,3.2118 -7.20485,4.8177 -11.71872,4.8177 z m 99.99974,0 v -66.6665 h 16.66662 v 66.6665 z m 33.33325,0 v -49.99987 h 74.99981 c 2.25694,0 4.21006,-0.78125 5.85936,-2.34375 1.6493,-1.6493 2.47395,-3.64582 2.47395,-5.98956 v -8.33332 h -66.66649 c -4.68749,0 -8.63714,-1.6059 -11.84893,-4.81769 -3.2118,-3.29861 -4.8177,-7.24825 -4.8177,-11.84893 h 99.99975 v 33.33325 c 0,4.68749 -1.6493,8.63713 -4.94791,11.84893 -3.2986,3.21179 -7.20484,4.81769 -11.71872,4.81769 h -16.66662 l 33.33325,33.33325 h -24.99994 l -33.33325,-33.33325 h -24.99993 v 33.33325 z"
         id="text3"
         clip-path="url(#clipPath16)"
         transform="matrix(0.68288037,0,0,0.68288037,-227.20053,-154.41123)"
         aria-label="UbiR"
         sodipodi:nodetypes="scccssscccccccccccccccscsccccccsssccccccccscscscccsssccccccc"
         inkscape:label="down" />
      <path
         d="m 273.85861,74.808302 q -0.56405,0 -1.0746,-0.172616 -0.51055,-0.170185 -0.93602,-0.483811 -0.42547,-0.311197 -0.73908,-0.736659 -0.31119,-0.423032 -0.48382,-0.931155 -0.17019,-0.510556 -0.17019,-1.074599 0,-0.564043 0.17019,-1.074597 0.17263,-0.510554 0.48382,-0.936017 0.31361,-0.425464 0.73908,-0.736659 0.42547,-0.313626 0.93602,-0.483812 0.51055,-0.172617 1.0746,-0.172617 0.56405,0 1.07217,0.172617 0.51055,0.170186 0.93357,0.483812 0.42547,0.311195 0.73668,0.736659 0.31362,0.425463 0.4838,0.936017 0.17263,0.510554 0.17263,1.074597 0,0.564043 -0.17263,1.074599 -0.17018,0.508123 -0.4838,0.931155 -0.31121,0.425462 -0.73668,0.736659 -0.42302,0.313626 -0.93357,0.483811 -0.50812,0.172616 -1.07217,0.172616 z m 0,-0.415738 q 0.49354,0 0.94088,-0.150735 0.44735,-0.150735 0.81933,-0.425463 0.37439,-0.272296 0.64669,-0.644271 0.27474,-0.374409 0.42547,-0.821752 0.15074,-0.447343 0.15074,-0.940881 0,-0.495967 -0.15074,-0.94331 -0.15073,-0.447346 -0.42547,-0.81932 -0.2723,-0.374407 -0.64669,-0.649135 -0.37198,-0.274727 -0.81933,-0.425463 -0.44734,-0.150736 -0.94088,-0.150736 -0.49597,0 -0.94332,0.150736 -0.44732,0.150736 -0.82174,0.425463 -0.37197,0.274728 -0.64671,0.649135 -0.27473,0.371974 -0.42546,0.81932 -0.15073,0.447343 -0.15073,0.94331 0,0.493538 0.15073,0.940881 0.15073,0.447343 0.42546,0.821752 0.27474,0.371975 0.64671,0.644271 0.37442,0.274728 0.82174,0.425463 0.44735,0.150735 0.94332,0.150735 z m -1.15726,-1.174277 v -3.622512 h 1.23992 q 0.42304,0 0.69532,0.145873 0.27474,0.143442 0.40602,0.396289 0.13373,0.252846 0.13373,0.576198 0,0.35982 -0.16534,0.627254 -0.16289,0.267433 -0.50568,0.386563 l 0.81203,1.490335 h -0.53488 l -0.75367,-1.407674 q -0.0414,0.0025 -0.0851,0.0025 h -0.78042 v 1.405244 z m 0.46193,-1.816118 h 0.75855 q 0.42788,0 0.61023,-0.184773 0.18477,-0.184771 0.18477,-0.503261 0,-0.323352 -0.18477,-0.517848 -0.18235,-0.194498 -0.6151,-0.194498 h -0.75368 z"
         id="text21"
         style="font-size:42.6667px;line-height:1;font-family:Roboto;-inkscape-font-specification:Roboto;white-space:pre;opacity:0.654373;fill:#383838;stroke:#383838;stroke-width:0.204297;stroke-dasharray:none;stroke-opacity:1;paint-order:stroke markers fill"
         aria-label="Ⓡ"
         inkscape:label="r" />
    </g>
    <text
       xml:space="preserve"
       style="font-style:normal;font-variant:normal;font-weight:normal;font-stretch:normal;font-size:25.4px;line-height:1;font-family:TESLA;-inkscape-font-specification:TESLA;text-align:center;text-decoration-color:#000000;writing-mode:lr-tb;direction:ltr;text-anchor:middle;white-space:pre;inline-size:258.907;display:inline;opacity:0.654373;fill:url(#linearGradient22);fill-opacity:1;stroke:none;stroke-width:0.0748546;-inkscape-stroke:none;paint-order:stroke markers fill"
       x="72.10466"
       y="165.94765"
       id="text19"
       transform="matrix(1.0233741,0,0,1.0233741,85.006439,-10.548613)"
       inkscape:label="subtitle"><tspan
         x="72.10466"
         y="165.94765"
         id="tspan9"><tspan
           style="font-weight:600;font-family:Bahnschrift;-inkscape-font-specification:'Bahnschrift Semi-Bold';text-align:start;text-anchor:start;stroke-width:0.0748545"
           id="tspan8">Ubiquitous Robotaxis</tspan></tspan></text>
  </g>
  <g
     inkscape:label="Page 2"
     inkscape:groupmode="layer"
     id="g30"
     transform="translate(302.7101)">
    <g
       id="g29"
       inkscape:label="logo"
       transform="translate(4.6024707e-7,5.3408434)"
       inkscape:export-filename="logo.png"
       inkscape:export-xdpi="305.85281"
       inkscape:export-ydpi="305.85281">
      <text
         xml:space="preserve"
         transform="matrix(0.68288037,0,0,0.68288037,-227.20053,-154.41123)"
         id="text27"
         style="font-weight:300;font-size:133.333px;line-height:1.5;font-family:Roboto;-inkscape-font-specification:'Roboto Light';text-align:center;text-decoration-color:#000000;writing-mode:lr-tb;direction:ltr;white-space:pre;shape-inside:url(#rect30);display:inline;fill:url(#linearGradient31);fill-opacity:1;stroke-width:0.282915;-inkscape-stroke:none;paint-order:stroke markers fill"
         inkscape:label="up"><tspan
           x="374.03432"
           y="418.55931"
           id="tspan11"><tspan
             style="font-weight:normal;font-family:TESLA;-inkscape-font-specification:TESLA"
             id="tspan10">UbiR</tspan></tspan></text>
      <text
         xml:space="preserve"
         transform="matrix(0.68288037,0,0,0.68288037,-227.20053,-154.41123)"
         id="text28"
         style="font-weight:300;font-size:133.333px;line-height:1.5;font-family:Roboto;-inkscape-font-specification:'Roboto Light';text-align:center;text-decoration-color:#000000;writing-mode:lr-tb;direction:ltr;white-space:pre;shape-inside:url(#rect31);display:inline;opacity:0.654373;fill:url(#linearGradient32);fill-opacity:1;stroke-width:0.282915;-inkscape-stroke:none;paint-order:stroke markers fill"
         clip-path="url(#clipPath10)"
         inkscape:label="flare"><tspan
           x="374.03432"
           y="418.55931"
           id="tspan13"><tspan
             style="font-weight:normal;font-family:TESLA;-inkscape-font-specification:TESLA"
             id="tspan12">UbiR</tspan></tspan></text>
      <path
         style="font-size:133.333px;line-height:1.5;font-family:TESLA;-inkscape-font-specification:TESLA;text-align:center;text-anchor:middle;white-space:pre;display:inline;fill:url(#linearGradient33);stroke-width:0.282915;paint-order:stroke markers fill"
         d="m 390.70095,418.55931 c -4.68749,0 -8.63714,-1.6059 -11.84893,-4.8177 -3.2118,-3.2986 -4.8177,-7.24824 -4.8177,-11.84892 h 99.99975 c 0,4.68749 -1.6493,8.63713 -4.94791,11.84892 -3.2986,3.2118 -7.20484,4.8177 -11.71872,4.8177 z m -16.66663,-33.33325 v -49.99987 h 16.66663 v 49.99987 z m 83.33312,0 v -49.99987 h 16.66663 v 49.99987 z m 33.33325,33.33325 v -16.66662 -13.34664 h 16.91881 v 13.34664 h 41.41437 c 2.25694,0 4.21006,-0.78125 5.85936,-2.34375 1.64931,-1.6493 2.47396,-3.64582 2.47396,-5.98957 v -24.99993 h -66.6665 v -33.33325 h 16.66662 v 16.66662 h 66.6665 v 49.99988 c 0,4.68749 -1.6493,8.63713 -4.9479,11.84892 -3.29861,3.2118 -7.20485,4.8177 -11.71872,4.8177 z m 99.99974,0 v -66.6665 h 16.66662 v 66.6665 z m 33.33325,0 v -49.99987 h 74.99981 c 2.25694,0 4.21006,-0.78125 5.85936,-2.34375 1.6493,-1.6493 2.47395,-3.64582 2.47395,-5.98956 v -8.33332 h -66.66649 c -4.68749,0 -8.63714,-1.6059 -11.84893,-4.81769 -3.2118,-3.29861 -4.8177,-7.24825 -4.8177,-11.84893 h 99.99975 v 33.33325 c 0,4.68749 -1.6493,8.63713 -4.94791,11.84893 -3.2986,3.21179 -7.20484,4.81769 -11.71872,4.81769 h -16.66662 l 33.33325,33.33325 h -24.99994 l -33.33325,-33.33325 h -24.99993 v 33.33325 z"
         id="path28"
         clip-path="url(#clipPath16)"
         transform="matrix(0.68288037,0,0,0.68288037,-227.20053,-154.41123)"
         aria-label="UbiR"
         sodipodi:nodetypes="scccssscccccccccccccccscsccccccsssccccccccscscscccsssccccccc"
         inkscape:label="down" />
      <path
         d="m 273.85861,74.808302 q -0.56405,0 -1.0746,-0.172616 -0.51055,-0.170185 -0.93602,-0.483811 -0.42547,-0.311197 -0.73908,-0.736659 -0.31119,-0.423032 -0.48382,-0.931155 -0.17019,-0.510556 -0.17019,-1.074599 0,-0.564043 0.17019,-1.074597 0.17263,-0.510554 0.48382,-0.936017 0.31361,-0.425464 0.73908,-0.736659 0.42547,-0.313626 0.93602,-0.483812 0.51055,-0.172617 1.0746,-0.172617 0.56405,0 1.07217,0.172617 0.51055,0.170186 0.93357,0.483812 0.42547,0.311195 0.73668,0.736659 0.31362,0.425463 0.4838,0.936017 0.17263,0.510554 0.17263,1.074597 0,0.564043 -0.17263,1.074599 -0.17018,0.508123 -0.4838,0.931155 -0.31121,0.425462 -0.73668,0.736659 -0.42302,0.313626 -0.93357,0.483811 -0.50812,0.172616 -1.07217,0.172616 z m 0,-0.415738 q 0.49354,0 0.94088,-0.150735 0.44735,-0.150735 0.81933,-0.425463 0.37439,-0.272296 0.64669,-0.644271 0.27474,-0.374409 0.42547,-0.821752 0.15074,-0.447343 0.15074,-0.940881 0,-0.495967 -0.15074,-0.94331 -0.15073,-0.447346 -0.42547,-0.81932 -0.2723,-0.374407 -0.64669,-0.649135 -0.37198,-0.274727 -0.81933,-0.425463 -0.44734,-0.150736 -0.94088,-0.150736 -0.49597,0 -0.94332,0.150736 -0.44732,0.150736 -0.82174,0.425463 -0.37197,0.274728 -0.64671,0.649135 -0.27473,0.371974 -0.42546,0.81932 -0.15073,0.447343 -0.15073,0.94331 0,0.493538 0.15073,0.940881 0.15073,0.447343 0.42546,0.821752 0.27474,0.371975 0.64671,0.644271 0.37442,0.274728 0.82174,0.425463 0.44735,0.150735 0.94332,0.150735 z m -1.15726,-1.174277 v -3.622512 h 1.23992 q 0.42304,0 0.69532,0.145873 0.27474,0.143442 0.40602,0.396289 0.13373,0.252846 0.13373,0.576198 0,0.35982 -0.16534,0.627254 -0.16289,0.267433 -0.50568,0.386563 l 0.81203,1.490335 h -0.53488 l -0.75367,-1.407674 q -0.0414,0.0025 -0.0851,0.0025 h -0.78042 v 1.405244 z m 0.46193,-1.816118 h 0.75855 q 0.42788,0 0.61023,-0.184773 0.18477,-0.184771 0.18477,-0.503261 0,-0.323352 -0.18477,-0.517848 -0.18235,-0.194498 -0.6151,-0.194498 h -0.75368 z"
         id="path29"
         style="font-size:42.6667px;line-height:1;font-family:Roboto;-inkscape-font-specification:Roboto;white-space:pre;opacity:0.654373;fill:#383838;stroke:#383838;stroke-width:0.204297;stroke-dasharray:none;stroke-opacity:1;paint-order:stroke markers fill"
         aria-label="Ⓡ"
         inkscape:label="r" />
    </g>
  </g>
  <g
     inkscape:label="Page 3"
     inkscape:groupmode="layer"
     id="g22"
     transform="translate(619.15177,47.722368)">
    <g
       id="g21"
       inkscape:label="logo"
       transform="matrix(0.5564911,0,0,0.5564911,110.01554,20.984253)"
       inkscape:export-filename="scene.png"
       inkscape:export-xdpi="292.61411"
       inkscape:export-ydpi="292.61411">
      <text
         xml:space="preserve"
         transform="matrix(0.68288037,0,0,0.68288037,-227.20053,-154.41123)"
         id="text18"
         style="font-weight:300;font-size:133.333px;line-height:1.5;font-family:Roboto;-inkscape-font-specification:'Roboto Light';text-align:center;text-decoration-color:#000000;writing-mode:lr-tb;direction:ltr;white-space:pre;shape-inside:url(#rect22);display:inline;fill:url(#linearGradient23);fill-opacity:1;stroke-width:0.282915;-inkscape-stroke:none;paint-order:stroke markers fill"
         inkscape:label="up"><tspan
           x="374.03432"
           y="418.55931"
           id="tspan15"><tspan
             style="font-weight:normal;font-family:TESLA;-inkscape-font-specification:TESLA"
             id="tspan14">UbiR</tspan></tspan></text>
      <text
         xml:space="preserve"
         transform="matrix(0.68288037,0,0,0.68288037,-227.20053,-154.41123)"
         id="text20"
         style="font-weight:300;font-size:133.333px;line-height:1.5;font-family:Roboto;-inkscape-font-specification:'Roboto Light';text-align:center;text-decoration-color:#000000;writing-mode:lr-tb;direction:ltr;white-space:pre;shape-inside:url(#rect23);display:inline;opacity:0.654373;fill:url(#linearGradient24);fill-opacity:1;stroke-width:0.282915;-inkscape-stroke:none;paint-order:stroke markers fill"
         clip-path="url(#clipPath10)"
         inkscape:label="flare"><tspan
           x="374.03432"
           y="418.55931"
           id="tspan18"><tspan
             style="font-weight:normal;font-family:TESLA;-inkscape-font-specification:TESLA"
             id="tspan16">UbiR</tspan></tspan></text>
      <path
         style="font-size:133.333px;line-height:1.5;font-family:TESLA;-inkscape-font-specification:TESLA;text-align:center;text-anchor:middle;white-space:pre;display:inline;fill:url(#linearGradient25);stroke-width:0.282915;paint-order:stroke markers fill"
         d="m 390.70095,418.55931 c -4.68749,0 -8.63714,-1.6059 -11.84893,-4.8177 -3.2118,-3.2986 -4.8177,-7.24824 -4.8177,-11.84892 h 99.99975 c 0,4.68749 -1.6493,8.63713 -4.94791,11.84892 -3.2986,3.2118 -7.20484,4.8177 -11.71872,4.8177 z m -16.66663,-33.33325 v -49.99987 h 16.66663 v 49.99987 z m 83.33312,0 v -49.99987 h 16.66663 v 49.99987 z m 33.33325,33.33325 v -16.66662 -13.34664 h 16.91881 v 13.34664 h 41.41437 c 2.25694,0 4.21006,-0.78125 5.85936,-2.34375 1.64931,-1.6493 2.47396,-3.64582 2.47396,-5.98957 v -24.99993 h -66.6665 v -33.33325 h 16.66662 v 16.66662 h 66.6665 v 49.99988 c 0,4.68749 -1.6493,8.63713 -4.9479,11.84892 -3.29861,3.2118 -7.20485,4.8177 -11.71872,4.8177 z m 99.99974,0 v -66.6665 h 16.66662 v 66.6665 z m 33.33325,0 v -49.99987 h 74.99981 c 2.25694,0 4.21006,-0.78125 5.85936,-2.34375 1.6493,-1.6493 2.47395,-3.64582 2.47395,-5.98956 v -8.33332 h -66.66649 c -4.68749,0 -8.63714,-1.6059 -11.84893,-4.81769 -3.2118,-3.29861 -4.8177,-7.24825 -4.8177,-11.84893 h 99.99975 v 33.33325 c 0,4.68749 -1.6493,8.63713 -4.94791,11.84893 -3.2986,3.21179 -7.20484,4.81769 -11.71872,4.81769 h -16.66662 l 33.33325,33.33325 h -24.99994 l -33.33325,-33.33325 h -24.99993 v 33.33325 z"
         id="path20"
         clip-path="url(#clipPath16)"
         transform="matrix(0.68288037,0,0,0.68288037,-227.20053,-154.41123)"
         aria-label="UbiR"
         sodipodi:nodetypes="scccssscccccccccccccccscsccccccsssccccccccscscscccsssccccccc"
         inkscape:label="down" />
      <path
         d="m 273.85861,74.808302 q -0.56405,0 -1.0746,-0.172616 -0.51055,-0.170185 -0.93602,-0.483811 -0.42547,-0.311197 -0.73908,-0.736659 -0.31119,-0.423032 -0.48382,-0.931155 -0.17019,-0.510556 -0.17019,-1.074599 0,-0.564043 0.17019,-1.074597 0.17263,-0.510554 0.48382,-0.936017 0.31361,-0.425464 0.73908,-0.736659 0.42547,-0.313626 0.93602,-0.483812 0.51055,-0.172617 1.0746,-0.172617 0.56405,0 1.07217,0.172617 0.51055,0.170186 0.93357,0.483812 0.42547,0.311195 0.73668,0.736659 0.31362,0.425463 0.4838,0.936017 0.17263,0.510554 0.17263,1.074597 0,0.564043 -0.17263,1.074599 -0.17018,0.508123 -0.4838,0.931155 -0.31121,0.425462 -0.73668,0.736659 -0.42302,0.313626 -0.93357,0.483811 -0.50812,0.172616 -1.07217,0.172616 z m 0,-0.415738 q 0.49354,0 0.94088,-0.150735 0.44735,-0.150735 0.81933,-0.425463 0.37439,-0.272296 0.64669,-0.644271 0.27474,-0.374409 0.42547,-0.821752 0.15074,-0.447343 0.15074,-0.940881 0,-0.495967 -0.15074,-0.94331 -0.15073,-0.447346 -0.42547,-0.81932 -0.2723,-0.374407 -0.64669,-0.649135 -0.37198,-0.274727 -0.81933,-0.425463 -0.44734,-0.150736 -0.94088,-0.150736 -0.49597,0 -0.94332,0.150736 -0.44732,0.150736 -0.82174,0.425463 -0.37197,0.274728 -0.64671,0.649135 -0.27473,0.371974 -0.42546,0.81932 -0.15073,0.447343 -0.15073,0.94331 0,0.493538 0.15073,0.940881 0.15073,0.447343 0.42546,0.821752 0.27474,0.371975 0.64671,0.644271 0.37442,0.274728 0.82174,0.425463 0.44735,0.150735 0.94332,0.150735 z m -1.15726,-1.174277 v -3.622512 h 1.23992 q 0.42304,0 0.69532,0.145873 0.27474,0.143442 0.40602,0.396289 0.13373,0.252846 0.13373,0.576198 0,0.35982 -0.16534,0.627254 -0.16289,0.267433 -0.50568,0.386563 l 0.81203,1.490335 h -0.53488 l -0.75367,-1.407674 q -0.0414,0.0025 -0.0851,0.0025 h -0.78042 v 1.405244 z m 0.46193,-1.816118 h 0.75855 q 0.42788,0 0.61023,-0.184773 0.18477,-0.184771 0.18477,-0.503261 0,-0.323352 -0.18477,-0.517848 -0.18235,-0.194498 -0.6151,-0.194498 h -0.75368 z"
         id="path21"
         style="font-size:42.6667px;line-height:1;font-family:Roboto;-inkscape-font-specification:Roboto;white-space:pre;opacity:0.654373;fill:#383838;stroke:#383838;stroke-width:0.204297;stroke-dasharray:none;stroke-opacity:1;paint-order:stroke markers fill"
         aria-label="Ⓡ"
         inkscape:label="r" />
    </g>
    <text
       xml:space="preserve"
       style="font-style:normal;font-variant:normal;font-weight:normal;font-stretch:normal;font-size:25.4px;line-height:1;font-family:TESLA;-inkscape-font-specification:TESLA;text-align:center;text-decoration-color:#000000;writing-mode:lr-tb;direction:ltr;text-anchor:middle;white-space:pre;inline-size:258.907;display:inline;opacity:1;fill:#9f9f9f;fill-opacity:1;stroke:none;stroke-width:0.0748546;-inkscape-stroke:none;paint-order:stroke markers fill"
       x="72.10466"
       y="165.94765"
       id="text19-2"
       transform="matrix(1.3342856,0,0,1.3015093,1.4464305,-122.8456)"
       inkscape:label="by"><tspan
         x="72.10466"
         y="165.94765"
         id="tspan20"><tspan
           style="font-style:italic;font-family:Rubik;-inkscape-font-specification:'Rubik Italic'"
           id="tspan19">by</tspan></tspan></text>
    <g
       id="g18"
       inkscape:label="group"
       transform="matrix(1.1192593,0,0,1.1192593,-17.095606,0.28604822)">
      <text
         xml:space="preserve"
         transform="matrix(0.26458333,0,0,0.26458333,-617.14045,-16.332035)"
         id="text4"
         style="font-style:normal;font-variant:normal;font-weight:600;font-stretch:normal;font-size:192px;line-height:1;font-family:Bahnschrift;-inkscape-font-specification:'Bahnschrift Semi-Bold';text-align:start;text-decoration-color:#000000;writing-mode:lr-tb;direction:ltr;white-space:pre;shape-inside:url(#rect4);display:inline;opacity:1;fill:url(#linearGradient13);fill-opacity:1;stroke:none;stroke-width:0.653858;paint-order:stroke markers fill"
         inkscape:label="down"><tspan
           x="2430"
           y="242.4375"
           id="tspan22"><tspan
             style="font-style:italic;font-weight:normal;font-family:Ethnocentric;-inkscape-font-specification:'Ethnocentric Italic'"
             id="tspan21">Scene</tspan></tspan></text>
      <text
         xml:space="preserve"
         transform="matrix(0.26458333,0,0,0.26458333,-617.14045,-16.332035)"
         id="text25"
         style="font-style:normal;font-variant:normal;font-weight:600;font-stretch:normal;font-size:192px;line-height:1;font-family:Bahnschrift;-inkscape-font-specification:'Bahnschrift Semi-Bold';text-align:start;text-decoration-color:#000000;writing-mode:lr-tb;direction:ltr;white-space:pre;shape-inside:url(#rect26);display:inline;opacity:0.654373;fill:url(#linearGradient15);fill-opacity:1;stroke:none;stroke-width:0.653858;paint-order:stroke markers fill"
         inkscape:label="up"
         clip-path="url(#clipPath9)"><tspan
           x="2430"
           y="242.4375"
           id="tspan24"><tspan
             style="font-style:italic;font-weight:normal;font-family:Ethnocentric;-inkscape-font-specification:'Ethnocentric Italic'"
             id="tspan23">Scene</tspan></tspan></text>
      <text
         xml:space="preserve"
         transform="matrix(0.26458333,0,0,0.26458333,-617.14045,-16.332035)"
         id="text17"
         style="font-style:normal;font-variant:normal;font-weight:600;font-stretch:normal;font-size:192px;line-height:1;font-family:Bahnschrift;-inkscape-font-specification:'Bahnschrift Semi-Bold';text-align:start;text-decoration-color:#000000;writing-mode:lr-tb;direction:ltr;white-space:pre;shape-inside:url(#rect17);display:inline;opacity:1;fill:#ffffff;fill-opacity:0.763769;stroke:none;stroke-width:0.653858;paint-order:stroke markers fill"
         inkscape:label="flare"
         clip-path="url(#clipPath17)"><tspan
           x="2430"
           y="242.4375"
           id="tspan26"><tspan
             style="font-style:italic;font-weight:normal;font-family:Ethnocentric;-inkscape-font-specification:'Ethnocentric Italic'"
             id="tspan25">Scene</tspan></tspan></text>
    </g>
  </g>
</svg>
